# AST/ASF file generated using VICON BodyLanguage
# -----------------------------------------------
:version 1.10
:name VICON
:units
  mass 1.0
  length 0.45
  angle deg
:documentation
   .ast/.asf automatically generated from VICON data using
   VICON BodyBuilder and BodyLanguage model FoxedUp or BRILLIANT.MOD
:root
   order TX TY TZ RX RY RZ
   axis XYZ
   position 0 0 0  
   orientation 0 0 0 
:bonedata
  begin
     id 1 
     name lhipjoint
     direction 0.57768 -0.667037 0.470475 
     length 2.36008 
     axis 0 0 0  XYZ
  end
  begin
     id 2 
     name lfemur
     direction 0.34202 -0.939693 0  
     length 6.97235  
     axis 0 0 20  XYZ
    dof rx ry rz
    limits (-160.0 20.0)
           (-70.0 70.0)
           (-60.0 70.0)
  end
  begin
     id 3 
     name ltibia
     direction 0.34202 -0.939693 0   
     length 6.93428   
     axis 0 0 20   XYZ
    dof rx
    limits (-10.0 170.0)
  end
  begin
     id 4 
     name lfoot
     direction 0.133018 -0.365463 0.921272   
     length 2.18603   
     axis -90 7.62852e-016 20   XYZ
    dof rx rz
    limits (-45.0 90.0)
           (-70.0 20.0)
  end
  begin
     id 5 
     name ltoes
     direction 1.53519e-011 -4.22055e-011 1   
     length 1.07924   
     axis -90 7.62852e-016 20   XYZ
    dof rx
    limits (-90.0 20.0)
  end
  begin
     id 6 
     name rhipjoint
     direction -0.577712 -0.667019 0.470462   
     length 2.36015  
     axis 0 0 0  XYZ 
  end
  begin
     id 7 
     name rfemur
     direction -0.34202 -0.939693 0   
     length 6.71195   
     axis 0 0 -20   XYZ
    dof rx ry rz
    limits (-160.0 20.0)
           (-70.0 70.0)
           (-70.0 60.0)
  end
  begin
     id 8 
     name rtibia
     direction -0.34202 -0.939693 0   
     length 7.04592   
     axis 0 0 -20   XYZ
    dof rx
    limits (-10.0 170.0)
 end
 begin
     id 9 
     name rfoot
     direction -0.113796 -0.312651 0.943027   
     length 2.03846  
     axis -90 -7.62852e-016 -20   XYZ
    dof rx rz
    limits (-45.0 90.0)
           (-20.0 70.0)
  end
  begin
     id 10 
     name rtoes
     direction -1.53586e-011 -4.218e-011 1   
     length 1.01562   
     axis -90 -7.62852e-016 -20   XYZ
    dof rx
    limits (-90.0 20.0)
  end
  begin
     id 11 
     name lowerback
     direction -0.0417299 0.991937 -0.119667   
     length 2.05257   
     axis 0 0 0   XYZ
    dof rx ry rz
    limits (-20.0 45.0)
           (-30.0 30.0)
           (-30.0 30.0)
  end
  begin
     id 12 
     name upperback
     direction -0.00017666 0.999999 0.00105178   
     length 2.05693   
     axis 0 0 0   XYZ
    dof rx ry rz
    limits (-20.0 45.0)
           (-30.0 30.0)
           (-30.0 30.0)
  end
  begin
     id 13 
     name thorax
     direction 0.0185169 0.998203 0.0569866   
     length 2.0932   
     axis 0 0 0   XYZ
    dof rx ry rz
    limits (-20.0 45.0)
           (-30.0 30.0)
           (-30.0 30.0)
  end
  begin
     id 14 
     name lowerneck
     direction -0.0212406 0.982645 0.184277   
     length 1.72509   
     axis 0 0 0   XYZ
    dof rx ry rz
    limits (-20.0 45.0)
           (-30.0 30.0)
           (-30.0 30.0)
  end
  begin
     id 15 
     name upperneck
     direction 0.00528579 0.965323 -0.261004   
     length 1.76294   
     axis 0 0 0   XYZ
    dof rx ry rz
    limits (-20.0 45.0)
           (-30.0 30.0)
           (-30.0 30.0)
  end
  begin
     id 16
     name head
     direction 0.00695421 0.994078 -0.108445  
     length 1.78678  
     axis 0 0 0   XYZ
    dof rx ry rz
    limits (-20.0 45.0)
           (-30.0 30.0)
           (-30.0 30.0)
  end
  begin
     id 17 
     name lclavicle
     direction 0.97277 0.211305 -0.095232  
     length 3.84823  
     axis 0 0 0   XYZ
    dof ry rz
    limits (-20.0 10.0)
           (0.0 20.0)
  end
  begin
     id 18 
     name lhumerus
     direction 1 -4.48957e-011 -1.98313e-027   
     length 4.97185   
     axis 180 -30 -90   XYZ
    dof rx ry rz
    limits (-60.0 90.0)
           (-90.0 90.0)
           (-90.0 90.0)
  end
  begin
     id 19
     name lradius
     direction 1 -4.4898e-011 7.31063e-027   
     length 3.35811   
     axis 180 -30 -90   XYZ
    dof rx
    limits (-10.0 170.0)
  end
  begin
     id 20
     name lwrist
     direction 1 -4.48938e-011 9.95048e-027   
     length 1.67905   
     axis -8.75986e-015 90 90   XYZ
    dof ry
    limits (-180.0 0.0)
 end
  begin
     id 21 
     name lhand
     direction 1 -4.4901e-011 1.9901e-026   
     length 0.622776   
     axis -1.26985e-014 90 90   XYZ
    dof rx rz
    limits (-90.0 90.0)
           (-45.0 45.0)
  end
  begin
     id 22 
     name lfingers
     direction 1 -4.48961e-011 3.98019e-026   
     length 0.502098   
     axis -2.5397e-014 90 90   XYZ
    dof rx
    limits (0.0 90.0)
  end
  begin
     id 23
     name lthumb
     direction 0.707107 -6.34933e-011 0.707107   
     length 0.720915   
     axis -90 45 2.85299e-015   XYZ
    dof rx rz
    limits (-45.0 45.0)
           (-45.0 45.0)
  end
  begin
     id 24 
     name rclavicle
     direction -0.990867 0.133739 -0.0172226   
     length 3.78845  
     axis 0 0 0   XYZ 
    dof ry rz
    limits (-10.0 20.0)
           (-20.0 0.0)
  end
  begin
     id 25 
     name rhumerus
     direction -1 -4.48972e-011 -1.99267e-027  
     length 4.96493   
     axis 180 30 90   XYZ
    dof rx ry rz
    limits (-90.0 60.0)
           (-90.0 90.0)
           (-90.0 90.0)
  end
  begin
     id 26 
     name rradius
     direction -1 -4.48969e-011 8.96093e-027   
     length 3.34929   
     axis 180 30 90   XYZ
    dof rx
    limits (-10.0 170.0)
  end
  begin
     id 27 
     name rwrist
     direction -1 -4.48953e-011 9.95048e-027   
     length 1.67464   
     axis -8.75986e-015 -90 -90   XYZ
    dof ry
    limits (-180.0 0.0)
  end
  begin
     id 28
     name rhand
     direction -1 -4.49001e-011 1.9901e-026   
     length 0.638041   
     axis -1.26985e-014 -90 -90   XYZ
    dof rx rz
    limits (-90.0 90.0)
           (-45.0 45.0)
  end
  begin
     id 29
     name rfingers
     direction -1 -4.48967e-011 3.98019e-026   
     length 0.514405   
     axis -2.5397e-014 -90 -90   XYZ
    dof rx
    limits (0.0 90.0)
  end
  begin
     id 30
     name rthumb
     direction -0.707107 -6.34904e-011 0.707107   
     length 0.738586   
     axis -90 -45 -2.85299e-015   XYZ
    dof rx rz
    limits (-45.0 45.0)
           (-45.0 45.0)
  end
:hierarchy
  begin
    root lhipjoint rhipjoint lowerback
    lhipjoint lfemur
    lfemur ltibia
    ltibia lfoot
    lfoot ltoes
    rhipjoint rfemur
    rfemur rtibia
    rtibia rfoot
    rfoot rtoes
    lowerback upperback
    upperback thorax
    thorax lowerneck lclavicle rclavicle
    lowerneck upperneck
    upperneck head
    lclavicle lhumerus
    lhumerus lradius
    lradius lwrist
    lwrist lhand lthumb
    lhand lfingers
    rclavicle rhumerus
    rhumerus rradius
    rradius rwrist
    rwrist rhand rthumb
    rhand rfingers
  end

#!OML:ASF E:\Mandelcareful walks\Project 1\Capture day 1\Session 1\Subject1.ASF
:FULLY-SPECIFIED
:DEGREES
1
root -31.016 16.0997 1.11661 69.2463 84.4345 69.7229
lowerback 0.735116 0.935475 -8.84533
upperback 5.08016 1.51267 0.59018
thorax 4.67595 0.412631 5.63126
lowerneck -18.7312 0.650603 -4.74272
upperneck 34.1879 2.78048 2.45022
head 14.9252 1.23256 2.43682
rclavicle 4.17448e-015 -6.36111e-015
rhumerus -32.1329 -3.0895 -78.3829
rradius 33.5587
rwrist -15.9598
rhand -9.39181 -30.0261
rfingers 7.12502
rthumb 16.5693 -59.3387
lclavicle 4.17448e-015 -6.36111e-015
lhumerus -30.4246 18.2307 78.9057
lradius 21.8753
lwrist -25.5061
lhand -24.5592 -12.0991
lfingers 7.12502
lthumb 1.93726 17.8718
rfemur -10.9141 -6.10996 12.3208
rtibia 36.7947
rfoot -25.0887 -7.25994
rtoes 3.652
lfemur -5.24389 -1.74218 -26.3647
ltibia 31.4795
lfoot -26.1348 16.3824
ltoes 2.56961
2
root -31.0574 16.1183 1.10624 55.5912 86.3745 55.7087
lowerback 1.28852 0.851101 -6.86242
upperback 4.7115 1.27457 0.997596
thorax 4.00982 0.396777 4.91739
lowerneck -18.4582 0.926014 -4.27663
upperneck 33.9971 3.10013 2.1701
head 14.7721 1.39252 2.28197
rclavicle 1.78906e-015 1.19271e-015
rhumerus -32.8438 -1.51438 -79.2888
rradius 34.6826
rwrist -16.3346
rhand -8.86456 -29.7623
rfingers 7.12502
rthumb 17.0768 -59.0317
lclavicle 1.78906e-015 1.19271e-015
lhumerus -30.4388 15.2173 79.9116
lradius 23.0259
lwrist -22.6427
lhand -18.5464 -11.2548
lfingers 7.12502
lthumb 7.74302 18.5834
rfemur -11.61 -7.34126 14.6654
rtibia 36.7984
rfoot -23.93 -6.58583
rtoes 3.04543
lfemur -6.38458 -2.00527 -23.9637
ltibia 32.8274
lfoot -27.0805 16.2119
ltoes 3.62502
3
root -31.1009 16.1306 1.09482 22.9529 87.7448 22.7368
lowerback 1.77059 0.734575 -4.89279
upperback 4.44427 1.04782 1.36318
thorax 3.49242 0.367157 4.17097
lowerneck -18.3332 1.1697 -3.83899
upperneck 33.8413 3.40005 1.86275
head 14.6747 1.5335 2.1222
rclavicle 5.96354e-016 -2.18663e-015
rhumerus -33.0594 -0.880865 -79.9527
rradius 35.2406
rwrist -15.8882
rhand -8.46025 -29.2209
rfingers 7.12502
rthumb 17.4659 -58.4562
lclavicle 5.96354e-016 -2.18663e-015
lhumerus -30.3374 12.7178 80.7921
lradius 24.0743
lwrist -20.8013
lhand -12.7032 -10.3244
lfingers 7.12502
lthumb 13.3793 19.226
rfemur -12.3535 -8.49753 16.8427
rtibia 36.98
rfoot -22.8261 -5.66573
rtoes 1.82547
lfemur -7.55194 -2.2519 -21.6459
ltibia 34.2777
lfoot -27.8831 15.9916
ltoes 4.04257
4
root -31.1384 16.1432 1.08613 -30.2565 87.7071 -30.8089
lowerback 2.07861 0.553902 -2.97192
upperback 4.23927 0.776862 1.76003
thorax 3.13968 0.298695 3.48988
lowerneck -18.1826 1.39313 -3.65397
upperneck 33.6692 3.70475 1.7016
head 14.5579 1.66565 2.06644
rclavicle -5.1684e-015 9.14409e-015
rhumerus -32.9714 -0.887522 -80.3195
rradius 35.4375
rwrist -15.078
rhand -7.81665 -28.9043
rfingers 7.12502
rthumb 18.0853 -58.0835
lclavicle -5.1684e-015 9.14409e-015
lhumerus -30.3504 11.6919 80.8858
lradius 24.9484
lwrist -20.7538
lhand -6.68934 -9.67183
lfingers 7.12502
lthumb 19.1696 19.4034
rfemur -13.1838 -9.75669 18.8843
rtibia 37.3427
rfoot -21.4274 -4.5402
rtoes 0.242308
lfemur -8.60233 -2.37636 -19.3455
ltibia 35.4589
lfoot -28.414 15.6635
ltoes 3.43554
5
root -31.1791 16.1667 1.08018 -70.0298 85.1034 -71.6587
lowerback 1.73434 0.219331 0.343639
upperback 3.77131 0.317347 2.62665
thorax 2.88953 0.162414 2.51449
lowerneck -17.8827 1.66684 -3.51579
upperneck 33.4989 4.10289 1.53243
head 14.4067 1.83455 2.02819
rclavicle -1.11816e-014 -1.30204e-014
rhumerus -32.9895 -0.738835 -80.6309
rradius 35.6914
rwrist -14.3468
rhand -7.456 -28.8836
rfingers 7.12502
rthumb 18.4322 -58.0303
lclavicle -1.11816e-014 -1.30204e-014
lhumerus -30.4856 5.22659 84.3507
lradius 26.2468
lwrist -4.5746
lhand -6.06295 -3.83837
lfingers 7.12502
lthumb 19.7718 25.176
rfemur -15.0116 -11.0238 22.748
rtibia 37.9304
rfoot -19.8626 -3.93362
rtoes -1.76717
lfemur -10.5713 -1.84953 -15.2338
ltibia 36.4181
lfoot -28.1144 14.7379
ltoes 2.04817
6
root -31.2027 16.1774 1.06789 -65.5997 84.4901 -67.1864
lowerback 2.21289 0.248825 0.645703
upperback 3.62055 0.370078 2.64394
thorax 2.46383 0.198892 2.35744
lowerneck -17.4097 1.96212 -3.26983
upperneck 33.2526 4.53046 1.24265
head 14.1917 2.01791 1.9204
rclavicle 2.37299e-015 1.48095e-014
rhumerus -33.133 -0.584459 -80.9322
rradius 35.9684
rwrist -13.5866
rhand -7.29807 -28.5826
rfingers 7.12502
rthumb 18.5841 -57.7149
lclavicle 2.37299e-015 1.48095e-014
lhumerus -30.3217 2.67474 85.7771
lradius 26.6906
lwrist 3.01885
lhand -11.9352 -2.1511
lfingers 7.12502
lthumb 14.1194 27.3492
rfemur -15.9039 -11.808 22.9205
rtibia 38.9155
rfoot -18.836 -2.98011
rtoes -6.48891
lfemur -10.776 -1.70485 -14.8141
ltibia 36.8673
lfoot -28.319 15.1441
ltoes 1.61961
7
root -31.205 16.1902 1.05414 -60.7464 84.0982 -62.197
lowerback 2.45241 0.351593 0.833202
upperback 3.58009 0.515366 2.54335
thorax 2.28443 0.277733 2.1454
lowerneck -17.0186 2.14355 -3.00049
upperneck 32.9829 4.80165 0.893805
head 13.9972 2.12838 1.76054
rclavicle 5.82688e-015 2.45002e-014
rhumerus -33.2599 -0.623942 -81.1678
rradius 36.1943
rwrist -13.1964
rhand -6.74885 -28.0095
rfingers 7.12502
rthumb 19.1124 -57.0904
lclavicle 5.82688e-015 2.45002e-014
lhumerus -29.8088 2.80064 85.6133
lradius 26.4435
lwrist 2.99792
lhand -12.0926 -2.51893
lfingers 7.12502
lthumb 13.9678 26.9919
rfemur -16.6086 -12.5919 22.6352
rtibia 39.9831
rfoot -18.5051 -1.85421
rtoes -13.9981
lfemur -10.6211 -1.65087 -14.7642
ltibia 37.0398
lfoot -28.469 15.597
ltoes 2.09128
8
root -31.2014 16.1998 1.04785 -57.8798 83.7117 -59.1944
lowerback 2.66307 0.415498 1.05844
upperback 3.58042 0.609595 2.51377
thorax 2.16617 0.331407 1.98578
lowerneck -17.0934 2.2597 -2.86348
upperneck 32.9868 5.027 0.620183
head 14.0251 2.20235 1.66657
rclavicle -5.70264e-015 -1.34677e-014
rhumerus -33.3269 -0.496094 -81.3362
rradius 36.4513
rwrist -13.267
rhand -6.11685 -27.5599
rfingers 7.12502
rthumb 19.72 -56.5796
lclavicle -5.70264e-015 -1.34677e-014
lhumerus -29.4515 3.04059 85.4524
lradius 26.5073
lwrist 2.67793
lhand -12.1108 -2.67013
lfingers 7.12502
lthumb 13.9502 26.8419
rfemur -17.2028 -13.0674 22.3078
rtibia 41.1133
rfoot -18.4316 -0.55792
rtoes -18.128
lfemur -10.2464 -1.6302 -14.6275
ltibia 36.8427
lfoot -28.5233 15.7398
ltoes 3.60334
9
root -31.2021 16.1994 1.04989 -56.3693 83.4491 -57.562
lowerback 3.01624 0.410212 1.16692
upperback 3.49786 0.615845 2.5494
thorax 1.88373 0.337187 1.95692
lowerneck -17.3616 2.37139 -2.95097
upperneck 33.228 5.27056 0.571605
head 14.1867 2.28235 1.71674
rclavicle -2.39349e-014 -1.51076e-014
rhumerus -33.4419 -0.332715 -81.3731
rradius 36.6519
rwrist -13.4268
rhand -5.64951 -27.3487
rfingers 7.12502
rthumb 20.1693 -56.3217
lclavicle -2.39349e-014 -1.51076e-014
lhumerus -29.2915 3.43182 85.3306
lradius 26.6822
lwrist 2.18703
lhand -12.2981 -2.64017
lfingers 7.12502
lthumb 13.7697 26.8842
rfemur -17.4736 -13.1027 21.8563
rtibia 41.8779
rfoot -18.3882 0.709346
rtoes -16.5803
lfemur -9.9496 -1.61187 -14.4998
ltibia 36.6679
lfoot -28.8817 15.7784
ltoes 3.29375
